<svg width="32" height="30" viewBox="0 0 32 30" fill="none" xmlns="http://www.w3.org/2000/svg">
<path d="M8.15434 23.1798C7.87485 23.4593 7.64893 24.0054 7.64893 24.4V29.5398H10.6328V21.4161C10.6328 21.0215 10.4068 20.9272 10.1274 21.2066L8.15434 23.1798Z" fill="#CB7D09"/>
<path d="M21.2607 18.3101C20.9819 18.5896 20.7552 19.1359 20.7552 19.5312V29.5406H23.7391V16.5437C23.7391 16.1491 23.5132 16.0554 23.2337 16.3349L21.2607 18.3101Z" fill="#CB7D09"/>
<path d="M25.6284 13.9359C25.3489 14.2146 25.1223 14.7608 25.1223 15.1554V29.5398H27.8967V12.3861C27.8967 11.9915 27.6701 11.8971 27.3906 12.1766L25.6284 13.9359Z" fill="#CB7D09"/>
<path d="M16.9801 22.59C16.9801 22.59 16.8471 22.7237 16.6827 22.8881C16.5191 23.0526 16.3861 23.5065 16.3861 23.9011V29.5399H19.37V20.9172C19.37 20.5226 19.1433 20.4282 18.8639 20.7077L16.9801 22.59Z" fill="#F2B860"/>
<path d="M12.5236 21.0738C12.2441 20.795 12.0175 20.8887 12.0175 21.2833V29.5399H15.0013V24.2606C15.0013 23.866 14.7868 23.332 14.5217 23.0683L14.042 22.5907L12.5236 21.0738Z" fill="#F2B860"/>
<path d="M4.39922 26.9371L3.43562 27.9022C3.15684 28.1817 2.93091 28.6614 2.93091 28.9745V29.5407H6.26144V25.7869C6.26144 25.3923 6.03551 25.2986 5.75602 25.5781L4.39922 26.9371Z" fill="#CB7D09"/>
<path d="M31.4946 12.2553C31.7733 12.5348 32 12.4404 32 12.0458V1.83119C32 1.09985 31.2994 0.459351 30.5724 0.459351H20.4171C20.0224 0.459351 19.9281 0.685982 20.2076 0.965468L23.8198 4.58049L22.3465 6.0474L15.5131 12.8872L11.8988 9.27362C11.6193 8.99414 11.1675 8.99484 10.888 9.27362L0.837117 19.3317C-0.279508 20.449 -0.278804 22.2598 0.83782 23.3763L0.907912 23.4471C2.02454 24.5637 3.8353 24.5637 4.95114 23.4464L11.3928 17.0013L15.0071 20.612C15.2866 20.8908 15.7391 20.8908 16.0186 20.612L27.9332 8.6953L31.4946 12.2553Z" fill="#CB7D09"/>
</svg>
