<svg width="48" height="48" viewBox="0 0 48 48" fill="none" xmlns="http://www.w3.org/2000/svg">
<path d="M7.34261 5.66455C7.34132 5.66455 7.33987 5.66455 7.33857 5.66455C6.88459 5.66455 6.4576 5.84152 6.13518 6.16314C5.80919 6.48831 5.62964 6.92128 5.62964 7.38221V33.1383C5.62964 34.0827 6.40104 34.853 7.3494 34.8554C11.3475 34.865 18.0458 35.6983 22.6668 40.534V13.5796C22.6668 13.2594 22.585 12.9586 22.4307 12.7097C18.638 6.60193 11.3497 5.67392 7.34261 5.66455Z" fill="#D0F4FF"/>
<path d="M42.3705 33.1382V7.38197C42.3705 6.92104 42.1909 6.48807 41.8649 6.16289C41.5425 5.84128 41.1152 5.66431 40.6617 5.66431C40.6603 5.66431 40.6588 5.66431 40.6575 5.66431C36.6505 5.67384 29.3623 6.60184 25.5695 12.7097C25.4151 12.9586 25.3335 13.2593 25.3335 13.5795V40.5338C29.9544 35.698 36.6528 34.8647 40.6509 34.8552C41.5991 34.8528 42.3705 34.0825 42.3705 33.1382Z" fill="#D0F4FF"/>
<path d="M46.2827 11.6042H45.0372V33.1382C45.0372 35.5497 43.0725 37.5161 40.6573 37.5221C37.2661 37.5302 31.6744 38.1933 27.7144 41.9413C34.5633 40.2644 41.7834 41.3545 45.8982 42.2922C46.412 42.4092 46.9429 42.2883 47.3545 41.9602C47.7647 41.633 48 41.1437 48 40.6187V13.3216C48.0002 12.3747 47.2296 11.6042 46.2827 11.6042Z" fill="#D0F4FF"/>
<path d="M2.96276 33.1382V11.6042H1.71734C0.770589 11.6042 0 12.3747 0 13.3216V40.6182C0 41.1434 0.235314 41.6325 0.645497 41.9597C1.05681 42.2877 1.58724 42.409 2.10183 42.2917C6.21659 41.3538 13.4368 40.2639 20.2855 41.9408C16.3256 38.1929 10.7339 37.53 7.34273 37.5219C4.92769 37.5161 2.96276 35.5497 2.96276 33.1382Z" fill="#D0F4FF"/>
</svg>
