<svg width="32" height="32" viewBox="0 0 32 32" fill="none" xmlns="http://www.w3.org/2000/svg">
<g clip-path="url(#clip0)">
<path d="M16.6906 13.3368C16.7474 13.1059 16.9545 12.9433 17.1926 12.9433H24.6913C25.8187 12.9433 26.7416 12.0206 26.7151 10.871C26.6912 9.78071 25.7603 8.89362 24.6403 8.89362H17.5306C16.4022 8.89362 15.3029 9.26588 14.4087 9.94716V18.4129C14.7261 18.522 15.0577 18.5968 15.399 18.6336L16.6906 13.3368Z" fill="#4ACFD7"/>
<path d="M13.3765 17.9039C13.3765 2.8943 13.3765 17.1465 13.3765 2.02457C13.3765 1.48392 13.1655 0.975536 12.7836 0.592956C11.5199 -0.670719 9.32678 0.215472 9.32678 2.02457V7.22069L11.4777 15.2729C11.7739 16.3813 12.4655 17.3032 13.3765 17.9039Z" fill="#1B6A6F"/>
<path d="M27.2893 13.9755C25.3331 13.9884 23.488 14.7581 22.0977 16.1471L20.4364 17.8091C17.1337 21.11 11.6439 19.8932 10.481 15.5394C7.44904 4.19102 8.20033 7.00289 7.3584 3.85295C7.11117 2.93012 6.27962 2.35167 5.40614 2.35167C4.07318 2.35167 3.10195 3.61424 3.44679 4.90134C5.06324 10.9333 6.78549 16.3347 6.78549 24.8936C6.78549 28.8116 9.97387 32 13.8926 32C17.0933 32 19.8557 29.8624 20.7287 26.9071C21.6092 23.9291 21.5509 24.1239 21.5584 24.1052C22.079 22.7516 22.8635 21.5445 23.8887 20.5187L28.2467 16.1613C29.0465 15.3616 28.4997 13.9755 27.2893 13.9755Z" fill="#1B6A6F"/>
<path d="M18.3933 7.86132L19.1313 5.10713C19.3752 4.1981 18.8333 3.26004 17.9242 3.01553C17.0017 2.76959 16.075 3.3223 15.8326 4.22327L14.67 8.56325C16.1615 7.78577 17.3411 7.86132 18.3933 7.86132Z" fill="#1B6A6F"/>
</g>
<defs>
<clipPath id="clip0">
<rect width="32" height="32" fill="white"/>
</clipPath>
</defs>
</svg>
