<svg width="48" height="48" viewBox="0 0 48 48" fill="none" xmlns="http://www.w3.org/2000/svg">
<path d="M15.1375 13.5119C18.8687 13.5119 21.8935 10.4871 21.8935 6.75593C21.8935 3.02473 18.8687 0 15.1375 0C11.4063 0 8.38159 3.02473 8.38159 6.75593C8.38159 10.4871 11.4063 13.5119 15.1375 13.5119Z" fill="#D0F4FF"/>
<path d="M41.6719 17.2314H39.7956V11.7288H35.3542V10.3509H32.6329C32.6329 9.48929 31.9079 8.78833 31.0089 8.78833C30.1083 8.78833 29.3818 9.48929 29.3818 10.3509H26.662V11.7288H21.5331V14.5356L21.3996 14.5296H17.5976L15.0204 17.5166L12.5302 14.5296L7.06214 15.2681L6.70491 27.6902H9.02693L9.15001 30.2119H9.50424V31.7519V32.8851V44.914H9.03894L6.32666 45.4994V48.0001H8.63367L11.3294 47.5603L11.355 48.0001H14.3374V45.2157V44.9155V32.8866H16.038V44.9155V45.2157V48.0001H19.025L19.049 47.5603L21.7433 48.0001H24.0518V45.4994L21.341 44.9125H20.8742V32.8836V31.7489V30.2104H21.3035L21.5316 25.7495V36.2428H39.7941V22.2957H41.6704L41.6719 17.2314ZM31.0089 9.78198C31.3691 9.78198 31.6663 10.0747 31.6663 10.4394C31.6663 10.8042 31.3736 11.0968 31.0089 11.0968C30.6441 11.0968 30.3499 10.8042 30.3499 10.4394C30.3499 10.0747 30.6456 9.78198 31.0089 9.78198ZM38.2946 34.7419H23.0341V13.2297H26.662V14.2924H35.3542V13.2297H38.2946V17.2314H37.1059V22.2972H38.2946V34.7419Z" fill="#D0F4FF"/>
</svg>
