<svg width="32" height="32" viewBox="0 0 32 32" fill="none" xmlns="http://www.w3.org/2000/svg">
<g clip-path="url(#clip0)">
<path d="M24.7733 17.72C24.508 17.72 24.2533 17.6147 24.0666 17.4267L14.5733 7.93335C14.1826 7.54268 14.1826 6.90935 14.5733 6.51868L20.2133 0.87868C21.3413 -0.254654 23.3226 -0.25732 24.4546 0.87868L31.1213 7.54535C31.688 8.11201 32 8.86535 32 9.66668C32 10.468 31.688 11.2213 31.1213 11.788L31.1133 11.796C30.9453 11.9627 25.48 17.428 25.48 17.428C25.2933 17.6147 25.0386 17.72 24.7733 17.72Z" fill="#6F1B1B"/>
<path d="M5 32H1C0.448 32 0 31.552 0 31V27C0 26.7347 0.105333 26.48 0.293333 26.2933L4.50667 22.08C4.89733 21.6893 5.53067 21.6893 5.92 22.08L9.92 26.08C10.3107 26.4707 10.3107 27.104 9.92 27.4947L5.70667 31.708C5.52 31.8947 5.26533 32 5 32Z" fill="#6F1B1B"/>
<path d="M11 28C10.212 28 9.43867 27.68 8.88 27.12L4.88 23.12C4.32 22.5613 4 21.788 4 21C4 20.8533 4.016 20.6867 4.03467 20.54L5.37333 12.5013C5.472 11.8947 5.76133 11.332 6.212 10.88L10.88 6.21333C11.9973 5.09466 14.004 5.09466 15.1213 6.21333L25.788 16.88C26.3467 17.4387 26.6667 18.212 26.6667 19C26.6667 19.788 26.3467 20.5613 25.7867 21.12L21.12 25.7867C20.668 26.2373 20.1053 26.528 19.492 26.6267L11.4987 27.96C11.3133 27.984 11.1467 28 11 28Z" fill="#6F1B1B"/>
<path d="M18.2041 17.332C17.6374 17.332 17.0694 17.116 16.6374 16.6853L15.3161 15.364C14.4534 14.5 14.4534 13.0933 15.3161 12.2293L20.2294 7.31598C21.0934 6.45198 22.4987 6.45198 23.3641 7.31465L24.6854 8.63598C25.5481 9.50131 25.5481 10.9066 24.6854 11.7706L19.7721 16.684C19.3387 17.116 18.7721 17.332 18.2041 17.332Z" fill="#D89898"/>
<path d="M27.7879 4.21204L24.0239 7.97603L24.6839 8.63603C25.5466 9.50136 25.5466 10.9067 24.6839 11.7707L22.6813 13.7734L25.7866 16.8787C25.8266 16.9187 25.8653 16.96 25.9039 17.0027C27.1906 15.716 30.9733 11.9334 31.1133 11.7947L31.1213 11.7867C31.6879 11.2214 31.9999 10.468 31.9999 9.6667C31.9999 8.86536 31.6879 8.11203 31.1213 7.54537L27.7879 4.21204Z" fill="#6F1B1B"/>
<path d="M6.88 25.12L0.293335 31.7067C0.473335 31.888 0.724002 32 1 32H5C5.26534 32 5.52 31.8947 5.70667 31.7067L9.708 27.7053C9.40267 27.56 9.12134 27.3627 8.88 27.12L6.88 25.12Z" fill="#6F1B1B"/>
<path d="M22.6813 13.7747L19.7707 16.6854C19.3387 17.1174 18.7707 17.3334 18.2027 17.3334C17.636 17.3334 17.068 17.1174 16.636 16.6867L15.9747 16.0254L6.88 25.12L8.88 27.12C9.12134 27.3613 9.40401 27.5587 9.70934 27.7053C10.1093 27.8973 10.552 28 11 28C11.1467 28 11.3133 27.984 11.4987 27.96L19.4933 26.628C20.1067 26.5293 20.6693 26.2387 21.1213 25.788L25.788 21.1213C26.3467 20.5613 26.6667 19.788 26.6667 19C26.6667 18.268 26.3907 17.5494 25.904 17.004C25.8667 16.9614 25.8267 16.92 25.7867 16.88L22.6813 13.7747Z" fill="#6F1B1B"/>
<path d="M24.0241 7.97598L15.9761 16.024L16.6374 16.6853C17.0694 17.116 17.6374 17.332 18.2041 17.332C18.7721 17.332 19.3401 17.116 19.7721 16.684L22.6827 13.7733L24.6854 11.7706C25.5481 10.9066 25.5481 9.50131 24.6854 8.63598L24.0241 7.97598Z" fill="#D89898"/>
</g>
<defs>
<clipPath id="clip0">
<rect width="32" height="32" fill="white"/>
</clipPath>
</defs>
</svg>
