<svg width="48" height="48" viewBox="0 0 48 48" fill="none" xmlns="http://www.w3.org/2000/svg">
<path d="M32.4247 5.43797V1.40625C32.4247 0.629625 31.7951 0 31.0184 0H23.4794C19.9756 0 17.0062 2.28075 15.97 5.43797H32.4247Z" fill="#D0F4FF"/>
<path d="M31.4661 23.9801C32.0781 22.8127 32.4248 21.4842 32.4248 20.0746V8.25049H15.5756V20.0747C15.5756 21.4843 15.9222 22.8128 16.5342 23.9802H31.4661V23.9801Z" fill="#D0F4FF"/>
<path d="M7.40616 46.3087V28.5957C6.75525 29.0873 6.24291 29.7656 5.95528 30.571L1.77347 42.2782C0.77766 45.0661 2.84147 48.0001 5.79835 48.0001H7.73691C7.52429 47.4775 7.40616 46.9068 7.40616 46.3087Z" fill="#D0F4FF"/>
<path d="M46.2266 42.2782L42.0449 30.571C41.7572 29.7657 41.245 29.0873 40.5941 28.5957V46.3087C40.5941 46.9068 40.4759 47.4774 40.2633 48.0001H42.2019C45.1586 48.0001 47.2226 45.0661 46.2266 42.2782Z" fill="#D0F4FF"/>
<path d="M36.0903 26.7927H11.91C10.9758 26.7927 10.2186 27.5499 10.2186 28.4841V46.3088C10.2186 47.2429 10.9758 48.0001 11.91 48.0001H36.0903C37.0245 48.0001 37.7817 47.2429 37.7817 46.3088V28.4841C37.7817 27.5499 37.0245 26.7927 36.0903 26.7927ZM25.4102 37.669C25.2797 38.3184 24.6941 38.8006 24.0312 38.8006C23.4418 38.8006 22.9081 38.4207 22.7079 37.8681C22.5081 37.3165 22.6861 36.6788 23.1396 36.3077C23.5962 35.9341 24.2471 35.8896 24.7536 36.1886C25.2578 36.4865 25.5253 37.0964 25.4102 37.669Z" fill="#D0F4FF"/>
</svg>
