<svg width="48" height="48" viewBox="0 0 48 48" fill="none" xmlns="http://www.w3.org/2000/svg">
<path d="M48 41.9766V45.1766C48 46.7333 46.7332 48.0001 45.1765 48.0001H2.82353C1.26682 48.0001 0 46.7333 0 45.1766V41.9766C0 40.4199 1.26682 39.1531 2.82353 39.1531H45.1765C46.7332 39.1531 48 40.4199 48 41.9766Z" fill="#D0F4FF"/>
<path d="M4.51758 18.447V36.3294H43.4823C43.4823 35.5222 43.4823 19.3286 43.4823 18.447H34.6352V33.1294H28.4235V18.447H19.5764V33.1294H13.3646V18.447H4.51758Z" fill="#D0F4FF"/>
<path d="M1.41215 15.6235H46.5886C48.0322 15.6235 48.5435 13.6968 47.2846 12.9835L24.6964 0.183529C24.2647 -0.0611765 23.7361 -0.0611765 23.3044 0.183529L0.716146 12.9835C-0.53976 13.6952 -0.0349129 15.6235 1.41215 15.6235Z" fill="#D0F4FF"/>
</svg>
